ffmpeg started on 2026-01-20 at 14:30:27
Report written to "D:\Convert\FFMetrics\reports\ssim_report-6.txt"
Log level: 32
Command line:
ffmpeg -hide_banner -nostdin -r 24000/1001 -i "F:\\Convert\\files\\[DC] Make Heroine ga Oosugiru - 07_Telegram_HEVC(212).mkv" -r 24000/1001 -i "F:\\Convert\\files\\[DC] Make Heroine ga Oosugiru - 07_Telegram.mp4" -lavfi "[0:v]settb=AVTB,setpts=PTS-STARTPTS,format=pix_fmts=yuv420p10le,fps=24000/1001,scale=1920:1080:flags=lanczos:param0=3:out_range=limited:out_color_matrix=bt709:out_chroma_loc=left,setsar=1/1,setdar=(1920/1080)*(1/1),colorspace=format=yuv420p10:range=tv:primaries=bt709:trc=bt709:space=bt709:fast=0[main];[1:v]settb=AVTB,setpts=PTS-STARTPTS,format=pix_fmts=yuv420p,fps=24000/1001,scale=1920:1080:flags=lanczos:param0=3:out_range=limited:out_color_matrix=bt709:out_chroma_loc=left,setsar=1.000,setdar=1.778,colorspace=format=yuv420p:range=tv:primaries=bt709:trc=bt709:space=bt709:fast=0[ref];[main][ref]ssim=eof_action=endall:stats_file='D\\:/Convert/FFMetrics/logs/ssim_logfile-6.txt'" -f null -
Input #0, matroska,webm, from 'F:\Convert\files\[DC] Make Heroine ga Oosugiru - 07_Telegram_HEVC(212).mkv':
  Metadata:
    COMPATIBLE_BRANDS: isomiso2avc1mp41
    MAJOR_BRAND     : isom
    MINOR_VERSION   : 512
    ENCODER         : Lavf61.7.100
  Duration: 00:24:06.79, start: -0.021000, bitrate: 894 kb/s
  Stream #0:0: Video: hevc (Main 10), yuv420p10le(tv, bt709, progressive), 1920x1080 [SAR 1:1 DAR 16:9], 23.98 fps, 23.98 tbr, 1k tbn (default)
      Metadata:
        HANDLER_NAME    : VideoHandler
        VENDOR_ID       : [0][0][0][0]
        ENCODER         : Lavc61.19.100 libx265
        BPS             : 697221
        DURATION        : 00:24:06.569708333
        NUMBER_OF_FRAMES: 34683
        NUMBER_OF_BYTES : 126072416
        _STATISTICS_WRITING_APP: mkvpropedit v94.0 ('Initiate') 64-bit
        _STATISTICS_WRITING_DATE_UTC: 2026-01-20 10:18:12
        _STATISTICS_TAGS: BPS DURATION NUMBER_OF_FRAMES NUMBER_OF_BYTES
  Stream #0:1: Audio: aac (LC), 48000 Hz, stereo, fltp (default)
      Metadata:
        HANDLER_NAME    : SoundHandler
        VENDOR_ID       : [0][0][0][0]
        ENCODER         : Lavc61.19.100 aac
        BPS             : 193194
        DURATION        : 00:24:06.784000000
        NUMBER_OF_FRAMES: 67819
        NUMBER_OF_BYTES : 34938755
        _STATISTICS_WRITING_APP: mkvpropedit v94.0 ('Initiate') 64-bit
        _STATISTICS_WRITING_DATE_UTC: 2026-01-20 10:18:12
        _STATISTICS_TAGS: BPS DURATION NUMBER_OF_FRAMES NUMBER_OF_BYTES
Input #1, mov,mp4,m4a,3gp,3g2,mj2, from 'F:\Convert\files\[DC] Make Heroine ga Oosugiru - 07_Telegram.mp4':
  Metadata:
    major_brand     : isom
    minor_version   : 512
    compatible_brands: isomiso2avc1mp41
    encoder         : Lavf60.16.100
  Duration: 00:24:06.74, start: 0.000000, bitrate: 3764 kb/s
  Stream #1:0[0x1](und): Video: h264 (High) (avc1 / 0x31637661), yuv420p(tv, bt709, progressive), 1920x1080 [SAR 1:1 DAR 16:9], 3616 kb/s, 23.98 fps, 23.98 tbr, 24k tbn (default)
      Metadata:
        handler_name    : VideoHandler
        vendor_id       : [0][0][0][0]
        encoder         : Lavc60.31.102 h264_qsv
  Stream #1:1[0x2](und): Audio: aac (HE-AACv2) (mp4a / 0x6134706D), 48000 Hz, stereo, fltp, 144 kb/s (default)
      Metadata:
        handler_name    : SoundHandler
        vendor_id       : [0][0][0][0]
Stream mapping:
  Stream #0:0 (hevc) -> settb:default
  Stream #1:0 (h264) -> settb:default
  ssim:default -> Stream #0:0 (wrapped_avframe)
  Stream #0:1 -> #0:1 (aac (native) -> pcm_s16le (native))
Output #0, null, to 'pipe:':
  Metadata:
    COMPATIBLE_BRANDS: isomiso2avc1mp41
    MAJOR_BRAND     : isom
    MINOR_VERSION   : 512
    encoder         : Lavf61.7.100
  Stream #0:0: Video: wrapped_avframe, yuv420p10le(tv, bt709, progressive), 1920x1080 [SAR 1:1 DAR 16:9], q=2-31, 200 kb/s, 23.98 fps, 23.98 tbn
      Metadata:
        encoder         : Lavc61.19.100 wrapped_avframe
  Stream #0:1: Audio: pcm_s16le, 48000 Hz, stereo, s16, 1536 kb/s (default)
      Metadata:
        HANDLER_NAME    : SoundHandler
        VENDOR_ID       : [0][0][0][0]
        _STATISTICS_TAGS: BPS DURATION NUMBER_OF_FRAMES NUMBER_OF_BYTES
        BPS             : 193194
        DURATION        : 00:24:06.784000000
        NUMBER_OF_FRAMES: 67819
        NUMBER_OF_BYTES : 34938755
        _STATISTICS_WRITING_APP: mkvpropedit v94.0 ('Initiate') 64-bit
        _STATISTICS_WRITING_DATE_UTC: 2026-01-20 10:18:12
        encoder         : Lavc61.19.100 pcm_s16le
frame=  134 fps=0.0 q=-0.0 size=N/A time=00:00:05.58 bitrate=N/A speed=10.9x    frame=  329 fps=322 q=-0.0 size=N/A time=00:00:13.72 bitrate=N/A speed=13.4x    frame=  524 fps=341 q=-0.0 size=N/A time=00:00:21.85 bitrate=N/A speed=14.2x    frame=  720 fps=349 q=-0.0 size=N/A time=00:00:30.03 bitrate=N/A speed=14.6x    frame=  905 fps=352 q=-0.0 size=N/A time=00:00:37.74 bitrate=N/A speed=14.7x    frame= 1058 fps=343 q=-0.0 size=N/A time=00:00:44.12 bitrate=N/A speed=14.3x    frame= 1224 fps=339 q=-0.0 size=N/A time=00:00:51.05 bitrate=N/A speed=14.1x    frame= 1399 fps=340 q=-0.0 size=N/A time=00:00:58.34 bitrate=N/A speed=14.2x    frame= 1550 fps=335 q=-0.0 size=N/A time=00:01:04.64 bitrate=N/A speed=  14x    frame= 1718 fps=333 q=-0.0 size=N/A time=00:01:11.65 bitrate=N/A speed=13.9x    frame= 1890 fps=333 q=-0.0 size=N/A time=00:01:18.82 bitrate=N/A speed=13.9x    frame= 2051 fps=332 q=-0.0 size=N/A time=00:01:25.54 bitrate=N/A speed=13.8x    frame= 2175 fps=325 q=-0.0 size=N/A time=00:01:30.71 bitrate=N/A speed=13.6x    frame= 2344 fps=325 q=-0.0 size=N/A time=00:01:37.76 bitrate=N/A speed=13.5x    frame= 2477 fps=321 q=-0.0 size=N/A time=00:01:43.31 bitrate=N/A speed=13.4x    frame= 2630 fps=319 q=-0.0 size=N/A time=00:01:49.69 bitrate=N/A speed=13.3x    frame= 2816 fps=321 q=-0.0 size=N/A time=00:01:57.45 bitrate=N/A speed=13.4x    frame= 2996 fps=323 q=-0.0 size=N/A time=00:02:04.95 bitrate=N/A speed=13.5x    frame= 3195 fps=326 q=-0.0 size=N/A time=00:02:13.25 bitrate=N/A speed=13.6x    frame= 3402 fps=330 q=-0.0 size=N/A time=00:02:21.89 bitrate=N/A speed=13.8x    frame= 3600 fps=332 q=-0.0 size=N/A time=00:02:30.15 bitrate=N/A speed=13.8x    frame= 3803 fps=335 q=-0.0 size=N/A time=00:02:38.61 bitrate=N/A speed=  14x    frame= 3996 fps=337 q=-0.0 size=N/A time=00:02:46.66 bitrate=N/A speed=  14x    frame= 4200 fps=339 q=-0.0 size=N/A time=00:02:55.17 bitrate=N/A speed=14.1x    frame= 4395 fps=341 q=-0.0 size=N/A time=00:03:03.30 bitrate=N/A speed=14.2x    frame= 4588 fps=342 q=-0.0 size=N/A time=00:03:11.35 bitrate=N/A speed=14.3x    frame= 4786 fps=344 q=-0.0 size=N/A time=00:03:19.61 bitrate=N/A speed=14.3x    frame= 4988 fps=345 q=-0.0 size=N/A time=00:03:28.04 bitrate=N/A speed=14.4x    frame= 5188 fps=346 q=-0.0 size=N/A time=00:03:36.38 bitrate=N/A speed=14.4x    frame= 5381 fps=347 q=-0.0 size=N/A time=00:03:44.43 bitrate=N/A speed=14.5x    frame= 5578 fps=349 q=-0.0 size=N/A time=00:03:52.64 bitrate=N/A speed=14.5x    frame= 5778 fps=350 q=-0.0 size=N/A time=00:04:00.99 bitrate=N/A speed=14.6x    frame= 5975 fps=351 q=-0.0 size=N/A time=00:04:09.20 bitrate=N/A speed=14.6x    frame= 6170 fps=352 q=-0.0 size=N/A time=00:04:17.34 bitrate=N/A speed=14.7x    frame= 6372 fps=352 q=-0.0 size=N/A time=00:04:25.76 bitrate=N/A speed=14.7x    frame= 6571 fps=353 q=-0.0 size=N/A time=00:04:34.06 bitrate=N/A speed=14.7x    frame= 6766 fps=354 q=-0.0 size=N/A time=00:04:42.19 bitrate=N/A speed=14.8x    frame= 6961 fps=355 q=-0.0 size=N/A time=00:04:50.33 bitrate=N/A speed=14.8x    frame= 7157 fps=355 q=-0.0 size=N/A time=00:04:58.50 bitrate=N/A speed=14.8x    frame= 7352 fps=356 q=-0.0 size=N/A time=00:05:06.63 bitrate=N/A speed=14.8x    frame= 7544 fps=356 q=-0.0 size=N/A time=00:05:14.64 bitrate=N/A speed=14.9x    frame= 7732 fps=356 q=-0.0 size=N/A time=00:05:22.48 bitrate=N/A speed=14.9x    frame= 7929 fps=357 q=-0.0 size=N/A time=00:05:30.70 bitrate=N/A speed=14.9x    frame= 8116 fps=357 q=-0.0 size=N/A time=00:05:38.50 bitrate=N/A speed=14.9x    frame= 8308 fps=357 q=-0.0 size=N/A time=00:05:46.51 bitrate=N/A speed=14.9x    frame= 8501 fps=358 q=-0.0 size=N/A time=00:05:54.56 bitrate=N/A speed=14.9x    frame= 8702 fps=358 q=-0.0 size=N/A time=00:06:02.94 bitrate=N/A speed=14.9x    frame= 8907 fps=359 q=-0.0 size=N/A time=00:06:11.49 bitrate=N/A speed=  15x    frame= 9097 fps=359 q=-0.0 size=N/A time=00:06:19.42 bitrate=N/A speed=  15x    frame= 9276 fps=359 q=-0.0 size=N/A time=00:06:26.88 bitrate=N/A speed=  15x    frame= 9469 fps=359 q=-0.0 size=N/A time=00:06:34.93 bitrate=N/A speed=  15x    frame= 9651 fps=359 q=-0.0 size=N/A time=00:06:42.52 bitrate=N/A speed=  15x    frame= 9843 fps=360 q=-0.0 size=N/A time=00:06:50.53 bitrate=N/A speed=  15x    frame=10045 fps=360 q=-0.0 size=N/A time=00:06:58.96 bitrate=N/A speed=  15x    frame=10236 fps=360 q=-0.0 size=N/A time=00:07:06.92 bitrate=N/A speed=  15x    frame=10427 fps=360 q=-0.0 size=N/A time=00:07:14.89 bitrate=N/A speed=  15x    frame=10623 fps=361 q=-0.0 size=N/A time=00:07:23.06 bitrate=N/A speed=  15x    frame=10802 fps=361 q=-0.0 size=N/A time=00:07:30.53 bitrate=N/A speed=  15x    frame=10989 fps=361 q=-0.0 size=N/A time=00:07:38.33 bitrate=N/A speed=  15x    frame=11179 fps=361 q=-0.0 size=N/A time=00:07:46.25 bitrate=N/A speed=  15x    frame=11359 fps=360 q=-0.0 size=N/A time=00:07:53.76 bitrate=N/A speed=  15x    frame=11554 fps=361 q=-0.0 size=N/A time=00:08:01.89 bitrate=N/A speed=  15x    frame=11742 fps=361 q=-0.0 size=N/A time=00:08:09.73 bitrate=N/A speed=  15x    frame=11940 fps=361 q=-0.0 size=N/A time=00:08:17.99 bitrate=N/A speed=15.1x    frame=12131 fps=361 q=-0.0 size=N/A time=00:08:25.96 bitrate=N/A speed=15.1x    frame=12329 fps=362 q=-0.0 size=N/A time=00:08:34.22 bitrate=N/A speed=15.1x    frame=12514 fps=362 q=-0.0 size=N/A time=00:08:41.93 bitrate=N/A speed=15.1x    frame=12706 fps=362 q=-0.0 size=N/A time=00:08:49.94 bitrate=N/A speed=15.1x    frame=12902 fps=362 q=-0.0 size=N/A time=00:08:58.12 bitrate=N/A speed=15.1x    frame=13095 fps=362 q=-0.0 size=N/A time=00:09:06.17 bitrate=N/A speed=15.1x    frame=13280 fps=362 q=-0.0 size=N/A time=00:09:13.88 bitrate=N/A speed=15.1x    frame=13465 fps=362 q=-0.0 size=N/A time=00:09:21.60 bitrate=N/A speed=15.1x    frame=13659 fps=362 q=-0.0 size=N/A time=00:09:29.69 bitrate=N/A speed=15.1x    frame=13852 fps=363 q=-0.0 size=N/A time=00:09:37.74 bitrate=N/A speed=15.1x    frame=14045 fps=363 q=-0.0 size=N/A time=00:09:45.79 bitrate=N/A speed=15.1x    frame=14229 fps=363 q=-0.0 size=N/A time=00:09:53.46 bitrate=N/A speed=15.1x    frame=14422 fps=363 q=-0.0 size=N/A time=00:10:01.51 bitrate=N/A speed=15.1x    frame=14607 fps=363 q=-0.0 size=N/A time=00:10:09.27 bitrate=N/A speed=15.1x    frame=14808 fps=363 q=-0.0 size=N/A time=00:10:17.61 bitrate=N/A speed=15.1x    frame=14997 fps=363 q=-0.0 size=N/A time=00:10:25.49 bitrate=N/A speed=15.1x    frame=15168 fps=363 q=-0.0 size=N/A time=00:10:32.63 bitrate=N/A speed=15.1x    frame=15346 fps=363 q=-0.0 size=N/A time=00:10:40.05 bitrate=N/A speed=15.1x    frame=15551 fps=363 q=-0.0 size=N/A time=00:10:48.60 bitrate=N/A speed=15.1x    frame=15746 fps=363 q=-0.0 size=N/A time=00:10:56.73 bitrate=N/A speed=15.1x    frame=15938 fps=363 q=-0.0 size=N/A time=00:11:04.74 bitrate=N/A speed=15.1x    frame=16128 fps=363 q=-0.0 size=N/A time=00:11:12.67 bitrate=N/A speed=15.2x    frame=16333 fps=364 q=-0.0 size=N/A time=00:11:21.22 bitrate=N/A speed=15.2x    frame=16519 fps=364 q=-0.0 size=N/A time=00:11:28.97 bitrate=N/A speed=15.2x    frame=16718 fps=364 q=-0.0 size=N/A time=00:11:37.27 bitrate=N/A speed=15.2x    frame=16910 fps=364 q=-0.0 size=N/A time=00:11:45.28 bitrate=N/A speed=15.2x    frame=17110 fps=364 q=-0.0 size=N/A time=00:11:53.62 bitrate=N/A speed=15.2x    frame=17312 fps=364 q=-0.0 size=N/A time=00:12:02.05 bitrate=N/A speed=15.2x    frame=17507 fps=365 q=-0.0 size=N/A time=00:12:10.18 bitrate=N/A speed=15.2x    frame=17694 fps=365 q=-0.0 size=N/A time=00:12:17.98 bitrate=N/A speed=15.2x    frame=17891 fps=365 q=-0.0 size=N/A time=00:12:26.20 bitrate=N/A speed=15.2x    frame=18088 fps=365 q=-0.0 size=N/A time=00:12:34.42 bitrate=N/A speed=15.2x    frame=18274 fps=365 q=-0.0 size=N/A time=00:12:42.17 bitrate=N/A speed=15.2x    frame=18461 fps=365 q=-0.0 size=N/A time=00:12:49.97 bitrate=N/A speed=15.2x    frame=18662 fps=365 q=-0.0 size=N/A time=00:12:58.36 bitrate=N/A speed=15.2x    frame=18854 fps=365 q=-0.0 size=N/A time=00:13:06.36 bitrate=N/A speed=15.2x    frame=19056 fps=366 q=-0.0 size=N/A time=00:13:14.79 bitrate=N/A speed=15.2x    frame=19253 fps=366 q=-0.0 size=N/A time=00:13:23.01 bitrate=N/A speed=15.3x    frame=19456 fps=366 q=-0.0 size=N/A time=00:13:31.47 bitrate=N/A speed=15.3x    frame=19648 fps=366 q=-0.0 size=N/A time=00:13:39.48 bitrate=N/A speed=15.3x    frame=19849 fps=366 q=-0.0 size=N/A time=00:13:47.86 bitrate=N/A speed=15.3x    frame=20054 fps=366 q=-0.0 size=N/A time=00:13:56.41 bitrate=N/A speed=15.3x    frame=20258 fps=367 q=-0.0 size=N/A time=00:14:04.92 bitrate=N/A speed=15.3x    frame=20446 fps=367 q=-0.0 size=N/A time=00:14:12.76 bitrate=N/A speed=15.3x    frame=20630 fps=367 q=-0.0 size=N/A time=00:14:20.44 bitrate=N/A speed=15.3x    frame=20838 fps=367 q=-0.0 size=N/A time=00:14:29.11 bitrate=N/A speed=15.3x    frame=21035 fps=367 q=-0.0 size=N/A time=00:14:37.33 bitrate=N/A speed=15.3x    frame=21229 fps=367 q=-0.0 size=N/A time=00:14:45.42 bitrate=N/A speed=15.3x    frame=21423 fps=367 q=-0.0 size=N/A time=00:14:53.51 bitrate=N/A speed=15.3x    frame=21628 fps=367 q=-0.0 size=N/A time=00:15:02.06 bitrate=N/A speed=15.3x    frame=21827 fps=368 q=-0.0 size=N/A time=00:15:10.36 bitrate=N/A speed=15.3x    frame=22020 fps=368 q=-0.0 size=N/A time=00:15:18.41 bitrate=N/A speed=15.3x    frame=22212 fps=368 q=-0.0 size=N/A time=00:15:26.42 bitrate=N/A speed=15.3x    frame=22415 fps=368 q=-0.0 size=N/A time=00:15:34.89 bitrate=N/A speed=15.3x    frame=22613 fps=368 q=-0.0 size=N/A time=00:15:43.15 bitrate=N/A speed=15.4x    frame=22797 fps=368 q=-0.0 size=N/A time=00:15:50.82 bitrate=N/A speed=15.4x    frame=22995 fps=368 q=-0.0 size=N/A time=00:15:59.08 bitrate=N/A speed=15.4x    frame=23197 fps=368 q=-0.0 size=N/A time=00:16:07.50 bitrate=N/A speed=15.4x    frame=23393 fps=368 q=-0.0 size=N/A time=00:16:15.68 bitrate=N/A speed=15.4x    frame=23591 fps=368 q=-0.0 size=N/A time=00:16:23.94 bitrate=N/A speed=15.4x    frame=23792 fps=369 q=-0.0 size=N/A time=00:16:32.32 bitrate=N/A speed=15.4x    frame=23986 fps=369 q=-0.0 size=N/A time=00:16:40.41 bitrate=N/A speed=15.4x    frame=24175 fps=369 q=-0.0 size=N/A time=00:16:48.29 bitrate=N/A speed=15.4x    frame=24376 fps=369 q=-0.0 size=N/A time=00:16:56.68 bitrate=N/A speed=15.4x    frame=24577 fps=369 q=-0.0 size=N/A time=00:17:05.06 bitrate=N/A speed=15.4x    frame=24768 fps=369 q=-0.0 size=N/A time=00:17:13.03 bitrate=N/A speed=15.4x    frame=24970 fps=369 q=-0.0 size=N/A time=00:17:21.45 bitrate=N/A speed=15.4x    frame=25167 fps=369 q=-0.0 size=N/A time=00:17:29.67 bitrate=N/A speed=15.4x    frame=25367 fps=369 q=-0.0 size=N/A time=00:17:38.01 bitrate=N/A speed=15.4x    frame=25563 fps=369 q=-0.0 size=N/A time=00:17:46.19 bitrate=N/A speed=15.4x    frame=25758 fps=370 q=-0.0 size=N/A time=00:17:54.32 bitrate=N/A speed=15.4x    frame=25958 fps=370 q=-0.0 size=N/A time=00:18:02.66 bitrate=N/A speed=15.4x    frame=26154 fps=370 q=-0.0 size=N/A time=00:18:10.83 bitrate=N/A speed=15.4x    frame=26348 fps=370 q=-0.0 size=N/A time=00:18:18.93 bitrate=N/A speed=15.4x    frame=26547 fps=370 q=-0.0 size=N/A time=00:18:27.23 bitrate=N/A speed=15.4x    frame=26746 fps=370 q=-0.0 size=N/A time=00:18:35.53 bitrate=N/A speed=15.4x    frame=26937 fps=370 q=-0.0 size=N/A time=00:18:43.49 bitrate=N/A speed=15.4x    frame=27117 fps=370 q=-0.0 size=N/A time=00:18:51.00 bitrate=N/A speed=15.4x    frame=27305 fps=370 q=-0.0 size=N/A time=00:18:58.84 bitrate=N/A speed=15.4x    frame=27498 fps=370 q=-0.0 size=N/A time=00:19:06.89 bitrate=N/A speed=15.4x    frame=27688 fps=370 q=-0.0 size=N/A time=00:19:14.82 bitrate=N/A speed=15.4x    frame=27871 fps=370 q=-0.0 size=N/A time=00:19:22.45 bitrate=N/A speed=15.4x    frame=28067 fps=370 q=-0.0 size=N/A time=00:19:30.62 bitrate=N/A speed=15.4x    frame=28261 fps=370 q=-0.0 size=N/A time=00:19:38.71 bitrate=N/A speed=15.4x    frame=28451 fps=370 q=-0.0 size=N/A time=00:19:46.64 bitrate=N/A speed=15.4x    frame=28644 fps=370 q=-0.0 size=N/A time=00:19:54.69 bitrate=N/A speed=15.4x    frame=28824 fps=370 q=-0.0 size=N/A time=00:20:02.20 bitrate=N/A speed=15.4x    frame=28995 fps=370 q=-0.0 size=N/A time=00:20:09.33 bitrate=N/A speed=15.4x    frame=29175 fps=369 q=-0.0 size=N/A time=00:20:16.84 bitrate=N/A speed=15.4x    frame=29363 fps=369 q=-0.0 size=N/A time=00:20:24.68 bitrate=N/A speed=15.4x    frame=29523 fps=369 q=-0.0 size=N/A time=00:20:31.35 bitrate=N/A speed=15.4x    frame=29698 fps=369 q=-0.0 size=N/A time=00:20:38.65 bitrate=N/A speed=15.4x    frame=29882 fps=369 q=-0.0 size=N/A time=00:20:46.32 bitrate=N/A speed=15.4x    frame=30053 fps=368 q=-0.0 size=N/A time=00:20:53.46 bitrate=N/A speed=15.4x    frame=30240 fps=368 q=-0.0 size=N/A time=00:21:01.26 bitrate=N/A speed=15.4x    frame=30432 fps=368 q=-0.0 size=N/A time=00:21:09.26 bitrate=N/A speed=15.4x    frame=30625 fps=369 q=-0.0 size=N/A time=00:21:17.31 bitrate=N/A speed=15.4x    frame=30824 fps=369 q=-0.0 size=N/A time=00:21:25.61 bitrate=N/A speed=15.4x    frame=31019 fps=369 q=-0.0 size=N/A time=00:21:33.75 bitrate=N/A speed=15.4x    frame=31210 fps=369 q=-0.0 size=N/A time=00:21:41.71 bitrate=N/A speed=15.4x    frame=31404 fps=369 q=-0.0 size=N/A time=00:21:49.80 bitrate=N/A speed=15.4x    frame=31599 fps=369 q=-0.0 size=N/A time=00:21:57.94 bitrate=N/A speed=15.4x    frame=31783 fps=369 q=-0.0 size=N/A time=00:22:05.61 bitrate=N/A speed=15.4x    frame=31964 fps=369 q=-0.0 size=N/A time=00:22:13.16 bitrate=N/A speed=15.4x    frame=32152 fps=369 q=-0.0 size=N/A time=00:22:21.00 bitrate=N/A speed=15.4x    frame=32347 fps=369 q=-0.0 size=N/A time=00:22:29.13 bitrate=N/A speed=15.4x    frame=32547 fps=369 q=-0.0 size=N/A time=00:22:37.48 bitrate=N/A speed=15.4x    frame=32713 fps=368 q=-0.0 size=N/A time=00:22:44.40 bitrate=N/A speed=15.4x    frame=32880 fps=368 q=-0.0 size=N/A time=00:22:51.37 bitrate=N/A speed=15.4x    frame=33059 fps=368 q=-0.0 size=N/A time=00:22:58.83 bitrate=N/A speed=15.4x    frame=33252 fps=368 q=-0.0 size=N/A time=00:23:06.88 bitrate=N/A speed=15.4x    frame=33426 fps=368 q=-0.0 size=N/A time=00:23:14.14 bitrate=N/A speed=15.3x    frame=33582 fps=368 q=-0.0 size=N/A time=00:23:20.64 bitrate=N/A speed=15.3x    frame=33742 fps=367 q=-0.0 size=N/A time=00:23:27.32 bitrate=N/A speed=15.3x    frame=33878 fps=367 q=-0.0 size=N/A time=00:23:32.99 bitrate=N/A speed=15.3x    frame=34041 fps=366 q=-0.0 size=N/A time=00:23:39.79 bitrate=N/A speed=15.3x    frame=34210 fps=366 q=-0.0 size=N/A time=00:23:46.84 bitrate=N/A speed=15.3x    frame=34359 fps=366 q=-0.0 size=N/A time=00:23:53.05 bitrate=N/A speed=15.3x    frame=34506 fps=365 q=-0.0 size=N/A time=00:23:59.18 bitrate=N/A speed=15.2x    [Parsed_ssim_16 @ 0000027dc11f1bc0] SSIM Y:0.993717 (22.018052) U:0.994005 (22.221849) V:0.993631 (21.959557) All:0.993750 (22.041482)
[out#0/null @ 0000027db9bf8a00] video:14903KiB audio:271276KiB subtitle:0KiB other streams:0KiB global headers:0KiB muxing overhead: unknown
frame=34683 fps=365 q=-0.0 Lsize=N/A time=00:24:06.57 bitrate=N/A speed=15.2x    
